<?xml version="1.0" encoding="UTF-8" standalone="no"?>
<svg
   xmlns:dc="http://purl.org/dc/elements/1.1/"
   xmlns:cc="http://creativecommons.org/ns#"
   xmlns:rdf="http://www.w3.org/1999/02/22-rdf-syntax-ns#"
   xmlns:svg="http://www.w3.org/2000/svg"
   xmlns="http://www.w3.org/2000/svg"
   viewBox="0 0 94.493332 94.493332"
   height="94.493332"
   width="94.493332"
   xml:space="preserve"
   id="svg2"
   version="1.1"><metadata
     id="metadata8"><rdf:RDF><cc:Work
         rdf:about=""><dc:format>image/svg+xml</dc:format><dc:type
           rdf:resource="http://purl.org/dc/dcmitype/StillImage" /></cc:Work></rdf:RDF></metadata><defs
     id="defs6" /><g
     transform="matrix(1.3333333,0,0,-1.3333333,0,94.493333)"
     id="g10"><g
       transform="scale(0.1)"
       id="g12"><path
         id="path14"
         style="fill:#158d4b;fill-opacity:1;fill-rule:nonzero;stroke:none"
         d="M 708.652,39.1719 C 708.652,17.6289 690.957,0 669.355,0 H 39.4141 C 17.8125,0 0,17.6289 0,39.1719 V 669.473 c 0,21.601 17.8125,39.179 39.4141,39.179 H 669.355 c 21.602,0 39.297,-17.578 39.297,-39.179 V 39.1719" /><path
         id="path16"
         style="fill:#ffffff;fill-opacity:1;fill-rule:nonzero;stroke:none"
         d="m 191.555,323.652 c 29.785,0 54.07,24.168 54.07,53.946 0,29.91 -24.285,54.199 -54.07,54.199 -29.907,0 -54.075,-24.289 -54.075,-54.199 0,-29.778 24.168,-53.946 54.075,-53.946" /><path
         id="path18"
         style="fill:#ffffff;fill-opacity:1;fill-rule:nonzero;stroke:none"
         d="m 161.648,267.742 h 113.157 c 13.3,0 24.172,10.742 24.172,24.172 v 75.313 c 0,13.425 -10.872,24.168 -24.172,24.168 -13.301,0 -24.168,-10.743 -24.168,-24.168 v -51.145 h -88.989 c -13.308,0 -24.168,-10.984 -24.168,-24.168 0,-13.43 10.86,-24.172 24.168,-24.172" /><path
         id="path20"
         style="fill:#ffffff;fill-opacity:1;fill-rule:nonzero;stroke:none"
         d="m 569.473,267.742 v 85.078 c 0,21.243 -17.332,38.575 -38.692,38.575 H 308.984 V 352.82 267.742 h 221.797 38.692" /><path
         id="path22"
         style="fill:#ffffff;fill-opacity:1;fill-rule:nonzero;stroke:none"
         d="m 609.395,392.988 c -15.879,0 -28.934,-12.949 -28.934,-28.937 V 257.004 H 128.32 v 180.652 c 0,15.996 -12.937,28.934 -28.8083,28.934 -15.9844,0 -29.0429,-12.938 -29.0429,-28.934 V 101.484 H 128.32 v 84.715 h 452.141 v -84.715 h 57.859 v 262.567 c 0,15.988 -12.937,28.937 -28.925,28.937" /></g></g></svg>