<svg xmlns="http://www.w3.org/2000/svg" viewBox="0 -22 90 115" width="90" height="115">
  <defs>
    <filter id="sh">
      <feDropShadow dx="0" dy="2" stdDeviation="2" flood-color="rgba(0,0,0,0.30)"/>
    </filter>

    <!-- Brick: warm red-orange, dark joints -->
    <linearGradient id="gBrickFace" x1="0%" y1="0%" x2="100%" y2="0%">
      <stop offset="0%"   stop-color="#7a3420"/>
      <stop offset="25%"  stop-color="#a04830"/>
      <stop offset="60%"  stop-color="#9a4428"/>
      <stop offset="100%" stop-color="#6e2e18"/>
    </linearGradient>
    <linearGradient id="gBrickTower" x1="0%" y1="0%" x2="100%" y2="0%">
      <stop offset="0%"   stop-color="#622a18"/>
      <stop offset="40%"  stop-color="#8e3e28"/>
      <stop offset="100%" stop-color="#581e10"/>
    </linearGradient>
    <!-- Fieldstone: cool grey, irregular -->
    <linearGradient id="gFieldstone" x1="0%" y1="0%" x2="100%" y2="0%">
      <stop offset="0%"   stop-color="#5a5650"/>
      <stop offset="50%"  stop-color="#7e7a74"/>
      <stop offset="100%" stop-color="#504c48"/>
    </linearGradient>
    <!-- Roof tiles: warm terracotta orange -->
    <linearGradient id="gRoof" x1="0%" y1="0%" x2="100%" y2="100%">
      <stop offset="0%"   stop-color="#b84820"/>
      <stop offset="100%" stop-color="#8a3418"/>
    </linearGradient>
    <!-- Spire: dark grey-green, very slender -->
    <linearGradient id="gSpire" x1="0%" y1="0%" x2="100%" y2="0%">
      <stop offset="0%"   stop-color="#2a3830"/>
      <stop offset="40%"  stop-color="#3e5848"/>
      <stop offset="100%" stop-color="#243028"/>
    </linearGradient>
    <!-- Ground -->
    <linearGradient id="gGnd" x1="0%" y1="0%" x2="0%" y2="100%">
      <stop offset="0%"  stop-color="#909880"/>
      <stop offset="100%" stop-color="#707860"/>
    </linearGradient>
  </defs>

  <!-- GROUND -->
  <ellipse cx="44" cy="80" rx="40" ry="5.5" fill="url(#gGnd)" opacity="0.7"/>
  <!-- Cobblestone hint -->
  <path d="M14 80 Q30 78 44 79 Q58 78 74 80" fill="none" stroke="#686858" stroke-width="0.4" opacity="0.5"/>

  <g filter="url(#sh)">

    <!-- ════════════════════════════════════════
         NAVE — main church body
    ════════════════════════════════════════════ -->

    <!-- Fieldstone base (lower ~40% of nave wall) -->
    <rect x="30" y="59" width="50" height="11" rx="0"
          fill="url(#gFieldstone)" stroke="#3a3830" stroke-width="0.4"/>
    <!-- Fieldstone texture — scattered irregular stones -->
    <ellipse cx="34" cy="62"   rx="2.0" ry="1.3" fill="#4a4640" opacity="0.55"/>
    <ellipse cx="40" cy="64.5" rx="2.4" ry="1.1" fill="#525048" opacity="0.50"/>
    <ellipse cx="46" cy="61.5" rx="1.8" ry="1.5" fill="#484440" opacity="0.55"/>
    <ellipse cx="53" cy="63.5" rx="2.2" ry="1.2" fill="#4e4a46" opacity="0.50"/>
    <ellipse cx="59" cy="61"   rx="1.9" ry="1.4" fill="#484440" opacity="0.55"/>
    <ellipse cx="65" cy="64"   rx="2.0" ry="1.1" fill="#524e4a" opacity="0.50"/>
    <ellipse cx="72" cy="62.5" rx="1.7" ry="1.3" fill="#4a4640" opacity="0.55"/>
    <ellipse cx="37" cy="65.5" rx="1.5" ry="0.9" fill="#504c48" opacity="0.45"/>
    <ellipse cx="57" cy="66"   rx="1.8" ry="0.9" fill="#484440" opacity="0.45"/>
    <ellipse cx="68" cy="65.5" rx="1.6" ry="1.0" fill="#524e4a" opacity="0.45"/>

    <!-- Brick upper nave wall -->
    <rect x="30" y="47" width="50" height="13"
          fill="url(#gBrickFace)" stroke="#4a1e0e" stroke-width="0.4"/>
    <!-- Brick courses -->
    <path d="M30 49.5 L80 49.5" stroke="#6a2e18" stroke-width="0.3" opacity="0.45"/>
    <path d="M30 52   L80 52"   stroke="#6a2e18" stroke-width="0.3" opacity="0.45"/>
    <path d="M30 54.5 L80 54.5" stroke="#6a2e18" stroke-width="0.3" opacity="0.45"/>
    <path d="M30 57   L80 57"   stroke="#6a2e18" stroke-width="0.3" opacity="0.45"/>

    <!-- THREE nave windows (arched, white-framed) -->
    <path d="M38 57 Q38 52.5 40.5 52.5 Q43 52.5 43 57 L43 60 L38 60 Z"
          fill="#d8cdb0" stroke="#3a1e0e" stroke-width="0.5"/>
    <path d="M39.2 57 Q39.2 53.8 40.5 53.8 Q41.8 53.8 41.8 57 L41.8 59 L39.2 59 Z"
          fill="white" opacity="0.7"/>

    <path d="M50 57 Q50 52.5 52.5 52.5 Q55 52.5 55 57 L55 60 L50 60 Z"
          fill="#d8cdb0" stroke="#3a1e0e" stroke-width="0.5"/>
    <path d="M51.2 57 Q51.2 53.8 52.5 53.8 Q53.8 53.8 53.8 57 L53.8 59 L51.2 59 Z"
          fill="white" opacity="0.7"/>

    <path d="M62 57 Q62 52.5 64.5 52.5 Q67 52.5 67 57 L67 60 L62 60 Z"
          fill="#d8cdb0" stroke="#3a1e0e" stroke-width="0.5"/>
    <path d="M63.2 57 Q63.2 53.8 64.5 53.8 Q65.8 53.8 65.8 57 L65.8 59 L63.2 59 Z"
          fill="white" opacity="0.7"/>

    <!-- PITCHED ROOF (terracotta orange tiles, visible over nave) -->
    <rect x="29" y="44.5" width="52" height="3.5" rx="0"
          fill="url(#gRoof)" stroke="#6a2808" stroke-width="0.4"/>
    <!-- Tile row hints -->
    <path d="M29 45.8 L81 45.8" stroke="#6a2808" stroke-width="0.3" opacity="0.4"/>
    <path d="M29 47.2 L81 47.2" stroke="#6a2808" stroke-width="0.3" opacity="0.4"/>

    <!-- ════════════════════════════════════════
         STEPPED GABLE  (wide, many crow-steps)
    ════════════════════════════════════════════ -->

    <!-- Gable main brick face -->
    <rect x="30" y="20" width="50" height="26"
          fill="url(#gBrickFace)" stroke="#4a1e0e" stroke-width="0.5"/>
    <!-- Brick courses on gable -->
    <path d="M30 22.5 L80 22.5" stroke="#6a2e18" stroke-width="0.3" opacity="0.4"/>
    <path d="M30 25   L80 25"   stroke="#6a2e18" stroke-width="0.3" opacity="0.4"/>
    <path d="M30 27.5 L80 27.5" stroke="#6a2e18" stroke-width="0.3" opacity="0.4"/>
    <path d="M30 30   L80 30"   stroke="#6a2e18" stroke-width="0.3" opacity="0.4"/>
    <path d="M30 32.5 L80 32.5" stroke="#6a2e18" stroke-width="0.3" opacity="0.4"/>
    <path d="M30 35   L80 35"   stroke="#6a2e18" stroke-width="0.3" opacity="0.4"/>
    <path d="M30 37.5 L80 37.5" stroke="#6a2e18" stroke-width="0.3" opacity="0.4"/>
    <path d="M30 40   L80 40"   stroke="#6a2e18" stroke-width="0.3" opacity="0.4"/>
    <path d="M30 42.5 L80 42.5" stroke="#6a2e18" stroke-width="0.3" opacity="0.4"/>

    <!-- CROW-STEP BATTLEMENTS — many small steps, symmetric from edges to peak -->
    <!-- Each step: 3px wide, 2.5px tall — 9 steps each side -->
    <!-- LEFT side steps (ascending right to peak) -->
    <path d="
      M30 20
      L30 17.5 L33 17.5
      L33 15.5 L36 15.5
      L36 13.5 L39 13.5
      L39 11.5 L42 11.5
      L42 9.5  L45 9.5
      L45 7.5  L48 7.5
      L48 5.5  L51 5.5
      L51 20 Z"
      fill="url(#gBrickFace)" stroke="#4a1e0e" stroke-width="0.5"/>
    <!-- RIGHT side steps (descending from peak) -->
    <path d="
      M51 5.5
      L54 5.5  L54 7.5
      L57 7.5  L57 9.5
      L60 9.5  L60 11.5
      L63 11.5 L63 13.5
      L66 13.5 L66 15.5
      L69 15.5 L69 17.5
      L72 17.5 L72 20
      L80 20
      L80 20 L51 20 Z"
      fill="url(#gBrickFace)" stroke="#4a1e0e" stroke-width="0.5"/>
    <!-- Decorative blind arcading row (horizontal band near top of gable) -->
    <path d="M33 23 Q55 21 77 23" fill="none" stroke="#6a2e18" stroke-width="0.5" opacity="0.5"/>
    <!-- Small decorative niches/blind arches across gable -->
    <path d="M36 28 Q38 25.5 40 28" fill="none" stroke="#6a2e18" stroke-width="0.5" opacity="0.6"/>
    <path d="M43 28 Q45 25.5 47 28" fill="none" stroke="#6a2e18" stroke-width="0.5" opacity="0.6"/>
    <path d="M50 28 Q52 25.5 54 28" fill="none" stroke="#6a2e18" stroke-width="0.5" opacity="0.6"/>
    <path d="M57 28 Q59 25.5 61 28" fill="none" stroke="#6a2e18" stroke-width="0.5" opacity="0.6"/>
    <path d="M64 28 Q66 25.5 68 28" fill="none" stroke="#6a2e18" stroke-width="0.5" opacity="0.6"/>
    <path d="M71 28 Q73 25.5 75 28" fill="none" stroke="#6a2e18" stroke-width="0.5" opacity="0.6"/>

    <!-- ══ ROMANESQUE PORTAL — photo-accurate ══
         Two concentric arches of individual stone voussoirs,
         slender colonettes, tympanum, tall panelled double door
    ════════════════════════════════════════════════════════ -->

    <!-- WALL REVEAL behind portal (slightly darker recess) -->
    <rect x="43" y="20" width="24" height="28" fill="#6e2e1a" rx="0.5"/>

    <!-- OUTER COLONETTES (slender round columns each side) -->
    <!-- Left outer colonette -->
    <rect x="43.5" y="32" width="2.5" height="15" rx="1" fill="#c0a882" stroke="#8a6840" stroke-width="0.4"/>
    <ellipse cx="44.75" cy="32"   rx="1.5" ry="1" fill="#d0b890" stroke="#8a6840" stroke-width="0.4"/>
    <ellipse cx="44.75" cy="47"   rx="1.5" ry="0.8" fill="#d0b890" stroke="#8a6840" stroke-width="0.4"/>
    <!-- Right outer colonette -->
    <rect x="64"   y="32" width="2.5" height="15" rx="1" fill="#b8a07a" stroke="#8a6840" stroke-width="0.4"/>
    <ellipse cx="65.25" cy="32"   rx="1.5" ry="1" fill="#d0b890" stroke="#8a6840" stroke-width="0.4"/>
    <ellipse cx="65.25" cy="47"   rx="1.5" ry="0.8" fill="#d0b890" stroke="#8a6840" stroke-width="0.4"/>

    <!-- INNER COLONETTES -->
    <rect x="47"   y="35" width="2" height="12" rx="0.8" fill="#c8b088" stroke="#8a6840" stroke-width="0.35"/>
    <ellipse cx="48" cy="35"  rx="1.2" ry="0.8" fill="#d8c098" stroke="#8a6840" stroke-width="0.35"/>
    <ellipse cx="48" cy="47"  rx="1.2" ry="0.7" fill="#d8c098" stroke="#8a6840" stroke-width="0.35"/>
    <rect x="61"   y="35" width="2" height="12" rx="0.8" fill="#bca880" stroke="#8a6840" stroke-width="0.35"/>
    <ellipse cx="62" cy="35"  rx="1.2" ry="0.8" fill="#d8c098" stroke="#8a6840" stroke-width="0.35"/>
    <ellipse cx="62" cy="47"  rx="1.2" ry="0.7" fill="#d8c098" stroke="#8a6840" stroke-width="0.35"/>

    <!-- OUTER ARCH — individual voussoir stone blocks -->
    <!-- Fill the outer arch band first -->
    <path d="M43.5 32 Q43.5 20 55.5 20 Q67.5 20 67.5 32 Q67.5 20.5 55.5 20.5 Q43.5 20.5 43.5 32 Z"
          fill="#c0a070"/>
    <path d="M43.5 32 Q43.5 20 55.5 20 Q67.5 20 67.5 32"
          fill="none" stroke="#9a7848" stroke-width="5.5"/>
    <!-- Outer voussoir joints — radiating from centre -->
    <path d="M43.5 32 Q46 25 50 21.5"   fill="none" stroke="#5a3010" stroke-width="0.6"/>
    <path d="M44.5 28 Q47.5 23 52 20.5" fill="none" stroke="#5a3010" stroke-width="0.6"/>
    <path d="M47 24 Q50.5 21 55.5 20.2" fill="none" stroke="#5a3010" stroke-width="0.6"/>
    <path d="M67.5 32 Q65 25 61 21.5"   fill="none" stroke="#5a3010" stroke-width="0.6"/>
    <path d="M66.5 28 Q63.5 23 59 20.5" fill="none" stroke="#5a3010" stroke-width="0.6"/>
    <path d="M64 24 Q60.5 21 55.5 20.2" fill="none" stroke="#5a3010" stroke-width="0.6"/>
    <!-- Outer arch keystone (prominent, lighter stone) -->
    <path d="M53 20.8 L55.5 18.8 L58 20.8 L57.5 23 L53.5 23 Z"
          fill="#d8b878" stroke="#6a4010" stroke-width="0.5"/>

    <!-- INNER ARCH — smaller, same voussoir treatment -->
    <path d="M47 35 Q47 24.5 55.5 24.5 Q64 24.5 64 35"
          fill="none" stroke="#8a5830" stroke-width="4.5"/>
    <!-- Inner arch voussoir joints -->
    <path d="M47 35 Q49 28 53 25.5"   fill="none" stroke="#4a2008" stroke-width="0.5"/>
    <path d="M48.5 30 Q51 26 55.5 24.8" fill="none" stroke="#4a2008" stroke-width="0.5"/>
    <path d="M64 35 Q62 28 58 25.5"   fill="none" stroke="#4a2008" stroke-width="0.5"/>
    <path d="M62.5 30 Q60 26 55.5 24.8" fill="none" stroke="#4a2008" stroke-width="0.5"/>
    <!-- Inner arch keystone -->
    <path d="M53.8 25.3 L55.5 23.8 L57.2 25.3 L56.8 27 L54.2 27 Z"
          fill="#c8a060" stroke="#6a4010" stroke-width="0.4"/>

    <!-- TYMPANUM (flat area between lintel and inner arch) -->
    <path d="M49 35 Q49 26.5 55.5 26.5 Q62 26.5 62 35 L62 35 L49 35 Z"
          fill="#7e3822"/>
    <!-- Tympanum subtle brick courses -->
    <path d="M50 32.5 L61 32.5" stroke="#5a2010" stroke-width="0.35" opacity="0.5"/>
    <path d="M50.5 30 L60.5 30" stroke="#5a2010" stroke-width="0.35" opacity="0.5"/>
    <path d="M51.5 28 L59.5 28" stroke="#5a2010" stroke-width="0.35" opacity="0.4"/>

    <!-- DOOR FRAME / LINTEL stone -->
    <rect x="49" y="34.5" width="13" height="1" fill="#c0a070" stroke="#6a4010" stroke-width="0.3"/>

    <!-- DARK SHADOW behind doors -->
    <rect x="49" y="35" width="13" height="12.5" fill="#180c04"/>

    <!-- THRESHOLD stone step -->
    <rect x="47.5" y="47" width="16" height="1.5" rx="0.3" fill="#c0a878" stroke="#6a4010" stroke-width="0.4"/>

    <!-- LEFT DOOR LEAF — warm dark wood, 3-col × 4-row square panels -->
    <rect x="49.2" y="35" width="6" height="12" rx="0.2" fill="#5c3218" stroke="#281408" stroke-width="0.5"/>
    <!-- Left vertical frame rails -->
    <path d="M50.3 35 L50.3 47"   stroke="#281408" stroke-width="0.4"/>
    <path d="M52.0 35 L52.0 47"   stroke="#281408" stroke-width="0.4"/>
    <path d="M53.7 35 L53.7 47"   stroke="#281408" stroke-width="0.4"/>
    <!-- Left horizontal rails -->
    <path d="M49.2 38   L55.2 38"   stroke="#281408" stroke-width="0.4"/>
    <path d="M49.2 41   L55.2 41"   stroke="#281408" stroke-width="0.4"/>
    <path d="M49.2 44   L55.2 44"   stroke="#281408" stroke-width="0.4"/>
    <!-- Left panels (recessed, slightly lighter warm brown) -->
    <rect x="49.5" y="35.3" width="0.6" height="2.4" rx="0.1" fill="#7a4828" opacity="0.7"/>
    <rect x="50.6" y="35.3" width="1.1" height="2.4" rx="0.1" fill="#7a4828" opacity="0.7"/>
    <rect x="52.3" y="35.3" width="1.1" height="2.4" rx="0.1" fill="#7a4828" opacity="0.7"/>
    <rect x="54.0" y="35.3" width="1.0" height="2.4" rx="0.1" fill="#7a4828" opacity="0.7"/>
    <rect x="49.5" y="38.3" width="0.6" height="2.4" rx="0.1" fill="#7a4828" opacity="0.7"/>
    <rect x="50.6" y="38.3" width="1.1" height="2.4" rx="0.1" fill="#7a4828" opacity="0.7"/>
    <rect x="52.3" y="38.3" width="1.1" height="2.4" rx="0.1" fill="#7a4828" opacity="0.7"/>
    <rect x="54.0" y="38.3" width="1.0" height="2.4" rx="0.1" fill="#7a4828" opacity="0.7"/>
    <rect x="49.5" y="41.3" width="0.6" height="2.4" rx="0.1" fill="#7a4828" opacity="0.7"/>
    <rect x="50.6" y="41.3" width="1.1" height="2.4" rx="0.1" fill="#7a4828" opacity="0.7"/>
    <rect x="52.3" y="41.3" width="1.1" height="2.4" rx="0.1" fill="#7a4828" opacity="0.7"/>
    <rect x="54.0" y="41.3" width="1.0" height="2.4" rx="0.1" fill="#7a4828" opacity="0.7"/>
    <rect x="49.5" y="44.3" width="0.6" height="2.4" rx="0.1" fill="#7a4828" opacity="0.7"/>
    <rect x="50.6" y="44.3" width="1.1" height="2.4" rx="0.1" fill="#7a4828" opacity="0.7"/>
    <rect x="52.3" y="44.3" width="1.1" height="2.4" rx="0.1" fill="#7a4828" opacity="0.7"/>
    <rect x="54.0" y="44.3" width="1.0" height="2.4" rx="0.1" fill="#7a4828" opacity="0.7"/>
    <!-- Left handle (iron ring) -->
    <path d="M54 42.5 Q54.8 41.5 54.8 42.8" fill="none" stroke="#c8a030" stroke-width="1.0" stroke-linecap="round"/>

    <!-- RIGHT DOOR LEAF -->
    <rect x="55.8" y="35" width="6" height="12" rx="0.2" fill="#50281a" stroke="#281408" stroke-width="0.5"/>
    <path d="M57.0 35 L57.0 47"   stroke="#281408" stroke-width="0.4"/>
    <path d="M58.8 35 L58.8 47"   stroke="#281408" stroke-width="0.4"/>
    <path d="M60.5 35 L60.5 47"   stroke="#281408" stroke-width="0.4"/>
    <path d="M55.8 38   L61.8 38"   stroke="#281408" stroke-width="0.4"/>
    <path d="M55.8 41   L61.8 41"   stroke="#281408" stroke-width="0.4"/>
    <path d="M55.8 44   L61.8 44"   stroke="#281408" stroke-width="0.4"/>
    <rect x="56.1" y="35.3" width="0.6" height="2.4" rx="0.1" fill="#6a3820" opacity="0.7"/>
    <rect x="57.3" y="35.3" width="1.1" height="2.4" rx="0.1" fill="#6a3820" opacity="0.7"/>
    <rect x="59.1" y="35.3" width="1.1" height="2.4" rx="0.1" fill="#6a3820" opacity="0.7"/>
    <rect x="60.8" y="35.3" width="0.8" height="2.4" rx="0.1" fill="#6a3820" opacity="0.7"/>
    <rect x="56.1" y="38.3" width="0.6" height="2.4" rx="0.1" fill="#6a3820" opacity="0.7"/>
    <rect x="57.3" y="38.3" width="1.1" height="2.4" rx="0.1" fill="#6a3820" opacity="0.7"/>
    <rect x="59.1" y="38.3" width="1.1" height="2.4" rx="0.1" fill="#6a3820" opacity="0.7"/>
    <rect x="60.8" y="38.3" width="0.8" height="2.4" rx="0.1" fill="#6a3820" opacity="0.7"/>
    <rect x="56.1" y="41.3" width="0.6" height="2.4" rx="0.1" fill="#6a3820" opacity="0.7"/>
    <rect x="57.3" y="41.3" width="1.1" height="2.4" rx="0.1" fill="#6a3820" opacity="0.7"/>
    <rect x="59.1" y="41.3" width="1.1" height="2.4" rx="0.1" fill="#6a3820" opacity="0.7"/>
    <rect x="60.8" y="41.3" width="0.8" height="2.4" rx="0.1" fill="#6a3820" opacity="0.7"/>
    <rect x="56.1" y="44.3" width="0.6" height="2.4" rx="0.1" fill="#6a3820" opacity="0.7"/>
    <rect x="57.3" y="44.3" width="1.1" height="2.4" rx="0.1" fill="#6a3820" opacity="0.7"/>
    <rect x="59.1" y="44.3" width="1.1" height="2.4" rx="0.1" fill="#6a3820" opacity="0.7"/>
    <rect x="60.8" y="44.3" width="0.8" height="2.4" rx="0.1" fill="#6a3820" opacity="0.7"/>
    <!-- Right handle -->
    <path d="M56 42.5 Q56.2 41.5 57 42.5" fill="none" stroke="#c8a030" stroke-width="1.0" stroke-linecap="round"/>

    <!-- Centre gap -->
    <path d="M55.5 35 L55.5 47" stroke="#180c04" stroke-width="0.7"/>

    <!-- LANTERNS (iron, hanging each side of portal, from photos) -->
    <!-- Left lantern -->
    <path d="M42.5 38 L43 36 L44 36 L44.5 38 L44.5 41.5 L42.5 41.5 Z"
          fill="#4a4020" stroke="#2a2010" stroke-width="0.4"/>
    <rect x="42.8" y="38.3" width="1.4" height="3" rx="0.2" fill="#f5e060" opacity="0.5"/>
    <path d="M43 36 L43.5 34.5 L44 36" fill="none" stroke="#2a2010" stroke-width="0.5"/>
    <!-- Right lantern -->
    <path d="M65.5 38 L66 36 L67 36 L67.5 38 L67.5 41.5 L65.5 41.5 Z"
          fill="#4a4020" stroke="#2a2010" stroke-width="0.4"/>
    <rect x="65.8" y="38.3" width="1.4" height="3" rx="0.2" fill="#f5e060" opacity="0.5"/>
    <path d="M66 36 L66.5 34.5 L67 36" fill="none" stroke="#2a2010" stroke-width="0.5"/>

    <!-- ════════════════════════════════════════
         TOWER  (left of gable, square, tall)
    ════════════════════════════════════════════ -->

    <!-- Tower fieldstone base -->
    <rect x="8" y="60" width="22" height="10"
          fill="url(#gFieldstone)" stroke="#3a3830" stroke-width="0.4"/>
    <ellipse cx="12"  cy="63"   rx="1.8" ry="1.2" fill="#4a4640" opacity="0.6"/>
    <ellipse cx="18"  cy="65.5" rx="2.0" ry="1.0" fill="#525048" opacity="0.5"/>
    <ellipse cx="24.5" cy="62"  rx="1.6" ry="1.3" fill="#484440" opacity="0.6"/>
    <ellipse cx="14"  cy="66.5" rx="1.4" ry="0.9" fill="#504c48" opacity="0.45"/>
    <ellipse cx="21"  cy="67.5" rx="1.5" ry="0.9" fill="#484440" opacity="0.45"/>

    <!-- Tower brick body -->
    <rect x="8" y="18" width="22" height="43"
          fill="url(#gBrickTower)" stroke="#3a1808" stroke-width="0.5"/>
    <!-- Brick courses tower -->
    <path d="M8 21  L30 21"  stroke="#4a2010" stroke-width="0.3" opacity="0.45"/>
    <path d="M8 24  L30 24"  stroke="#4a2010" stroke-width="0.3" opacity="0.45"/>
    <path d="M8 27  L30 27"  stroke="#4a2010" stroke-width="0.3" opacity="0.45"/>
    <path d="M8 30  L30 30"  stroke="#4a2010" stroke-width="0.3" opacity="0.45"/>
    <path d="M8 33  L30 33"  stroke="#4a2010" stroke-width="0.3" opacity="0.45"/>
    <path d="M8 36  L30 36"  stroke="#4a2010" stroke-width="0.3" opacity="0.45"/>
    <path d="M8 39  L30 39"  stroke="#4a2010" stroke-width="0.3" opacity="0.45"/>
    <path d="M8 42  L30 42"  stroke="#4a2010" stroke-width="0.3" opacity="0.45"/>
    <path d="M8 45  L30 45"  stroke="#4a2010" stroke-width="0.3" opacity="0.45"/>
    <path d="M8 48  L30 48"  stroke="#4a2010" stroke-width="0.3" opacity="0.45"/>
    <path d="M8 51  L30 51"  stroke="#4a2010" stroke-width="0.3" opacity="0.45"/>
    <path d="M8 54  L30 54"  stroke="#4a2010" stroke-width="0.3" opacity="0.45"/>
    <path d="M8 57  L30 57"  stroke="#4a2010" stroke-width="0.3" opacity="0.45"/>

    <!-- TOWER SMALL DOOR (arched, lower left) -->
    <path d="M11 60 Q11 56.5 13.5 56.5 Q16 56.5 16 60 L16 60 Z"
          fill="#2a1008" stroke="#3a1808" stroke-width="0.4"/>
    <rect x="11.5" y="57.5" width="4" height="2.5" rx="0" fill="#3a2010"/>

    <!-- Tower arched windows — lower level (2) -->
    <path d="M10 51 Q10 47.5 12 47.5 Q14 47.5 14 51 L14 54 L10 54 Z"
          fill="#d0c5a8" stroke="#3a1808" stroke-width="0.4"/>
    <path d="M18 51 Q18 47.5 20 47.5 Q22 47.5 22 51 L22 54 L18 54 Z"
          fill="#d0c5a8" stroke="#3a1808" stroke-width="0.4"/>

    <!-- Tower arched windows — mid level (2) -->
    <path d="M10 41 Q10 37.5 12 37.5 Q14 37.5 14 41 L14 44 L10 44 Z"
          fill="#d0c5a8" stroke="#3a1808" stroke-width="0.4"/>
    <path d="M18 41 Q18 37.5 20 37.5 Q22 37.5 22 41 L22 44 L18 44 Z"
          fill="#d0c5a8" stroke="#3a1808" stroke-width="0.4"/>

    <!-- CLOCK FACE (visible in photos, on upper tower face) -->
    <circle cx="19" cy="26" r="4" fill="#1a3468" stroke="#c8a840" stroke-width="0.7"/>
    <circle cx="19" cy="26" r="3.2" fill="#1a3468"/>
    <!-- Clock numerals ring -->
    <circle cx="19" cy="26" r="2.9" fill="none" stroke="#c8a840" stroke-width="0.3"/>
    <!-- Clock hands -->
    <line x1="19" y1="26" x2="19" y2="23.5" stroke="#f0d870" stroke-width="0.7" stroke-linecap="round"/>
    <line x1="19" y1="26" x2="21"  y2="27"  stroke="#f0d870" stroke-width="0.5" stroke-linecap="round"/>
    <!-- Hour markers -->
    <circle cx="19" cy="23.2" r="0.3" fill="#c8a840"/>
    <circle cx="19" cy="28.8" r="0.3" fill="#c8a840"/>
    <circle cx="16.1" cy="26" r="0.3" fill="#c8a840"/>
    <circle cx="21.9" cy="26" r="0.3" fill="#c8a840"/>

    <!-- Tower top: small crow-step parapet before spire -->
    <path d="M8 18
             L8 16  L10 16  L10 14  L12 14
             L12 16 L14 16  L14 14  L16 14
             L16 16 L18 16  L18 14  L20 14
             L20 16 L22 16  L22 14  L24 14
             L24 16 L26 16  L26 18 Z"
          fill="url(#gBrickTower)" stroke="#3a1808" stroke-width="0.5"/>

    <!-- ════════════════════════════════════════
         SPIRE — very tall, slender, dark grey-green
         needle-like as in photos
    ════════════════════════════════════════════ -->
    <!-- Spire base octagonal cap -->
    <rect x="13" y="11" width="8" height="4" rx="0.5"
          fill="#3a4840" stroke="#1e2e28" stroke-width="0.4"/>
    <!-- Main spire shaft — very narrow, tall needle -->
    <path d="M15 11 L19 11 L18.5 1 Q17.5 -3 17 -5 Q16.5 -3 15.5 1 Z"
          fill="url(#gSpire)" stroke="#1e2e28" stroke-width="0.4"/>
    <!-- Spire centre ridge -->
    <path d="M17 -5 L17 11" stroke="#243028" stroke-width="0.3" opacity="0.6"/>
    <!-- Spire facet shading -->
    <path d="M15 11 L15.5 1 Q16 -2 17 -5" fill="#2a3830" opacity="0.3"/>
    <!-- Weathervane at very tip -->
    <line x1="17" y1="-5" x2="17" y2="-7" stroke="#3a3830" stroke-width="0.6"/>
    <path d="M14.5 -6.5 L17 -7.5 L19.5 -6.5" fill="none" stroke="#3a3830" stroke-width="0.5" stroke-linecap="round"/>
    <circle cx="17" cy="-5" r="0.5" fill="#504c48"/>

  </g>

  <!-- ══ LABEL ══════════════════════════════════ -->
  <rect x="3" y="-20" width="84" height="12" rx="6"
        fill="white" stroke="#cccccc" stroke-width="0.9"/>
  <text x="45" y="-11.5" text-anchor="middle"
        font-family="'Nunito','Arial',sans-serif"
        font-size="5.5" font-weight="800" letter-spacing="0.05"
        fill="#000000">Rudkøbing Kirke</text>

</svg>
