<svg xmlns="http://www.w3.org/2000/svg" viewBox="0 0 500 455" width="500" height="455">
  <defs>
    <!-- Sky gradient -->
    <linearGradient id="sky" x1="0" y1="0" x2="0" y2="1">
      <stop offset="0%" stop-color="#87CEEB"/>
      <stop offset="100%" stop-color="#d0eaf7"/>
    </linearGradient>
    <!-- Wall texture gradient -->
    <linearGradient id="wallGrad" x1="0" y1="0" x2="0" y2="1">
      <stop offset="0%" stop-color="#f5e6a3"/>
      <stop offset="100%" stop-color="#e8d47a"/>
    </linearGradient>
    <linearGradient id="wallGradCenter" x1="0" y1="0" x2="0" y2="1">
      <stop offset="0%" stop-color="#f2e090"/>
      <stop offset="100%" stop-color="#e0ca6a"/>
    </linearGradient>
    <!-- Roof gradient -->
    <linearGradient id="roofGrad" x1="0" y1="0" x2="0" y2="1">
      <stop offset="0%" stop-color="#b85c38"/>
      <stop offset="100%" stop-color="#8c3e22"/>
    </linearGradient>
    <!-- Door gradient -->
    <linearGradient id="doorGrad" x1="0" y1="0" x2="0" y2="1">
      <stop offset="0%" stop-color="#d0d8c0"/>
      <stop offset="100%" stop-color="#a8b095"/>
    </linearGradient>
    <!-- Window glass -->
    <linearGradient id="glass" x1="0" y1="0" x2="1" y2="1">
      <stop offset="0%" stop-color="#cde8f5" stop-opacity="0.9"/>
      <stop offset="100%" stop-color="#a8d0e8" stop-opacity="0.7"/>
    </linearGradient>
    <!-- Ground -->
    <linearGradient id="groundGrad" x1="0" y1="0" x2="0" y2="1">
      <stop offset="0%" stop-color="#c8b870"/>
      <stop offset="100%" stop-color="#a89840"/>
    </linearGradient>
  </defs>

  <!-- Floating label above building -->
  <rect x="130" y="8" width="240" height="32" rx="16" fill="white" stroke="#555" stroke-width="1.5"/>
  <text x="250" y="29" font-family="Georgia, serif" font-size="13" font-weight="bold" text-anchor="middle" fill="#333" letter-spacing="0.5">Langelands Museum</text>

  <g transform="translate(0,35)">
  <!-- =================== SIDE WINGS =================== -->
  <!-- LEFT WING -->
  <rect x="25" y="195" width="155" height="175" fill="url(#wallGrad)" stroke="#c8b450" stroke-width="0.5"/>
  <!-- RIGHT WING -->
  <rect x="320" y="195" width="155" height="175" fill="url(#wallGrad)" stroke="#c8b450" stroke-width="0.5"/>

  <!-- Wing cornices (top decorative band) -->
  <!-- Left wing cornice -->
  <rect x="25" y="190" width="155" height="12" fill="#e8d470"/>
  <rect x="25" y="188" width="155" height="4" fill="#d4bc50"/>
  <!-- dentil details left -->
  <g fill="#c8aa40">
    <rect x="30" y="188" width="4" height="4"/>
    <rect x="38" y="188" width="4" height="4"/>
    <rect x="46" y="188" width="4" height="4"/>
    <rect x="54" y="188" width="4" height="4"/>
    <rect x="62" y="188" width="4" height="4"/>
    <rect x="70" y="188" width="4" height="4"/>
    <rect x="78" y="188" width="4" height="4"/>
    <rect x="86" y="188" width="4" height="4"/>
    <rect x="94" y="188" width="4" height="4"/>
    <rect x="102" y="188" width="4" height="4"/>
    <rect x="110" y="188" width="4" height="4"/>
    <rect x="118" y="188" width="4" height="4"/>
    <rect x="126" y="188" width="4" height="4"/>
    <rect x="134" y="188" width="4" height="4"/>
    <rect x="142" y="188" width="4" height="4"/>
    <rect x="150" y="188" width="4" height="4"/>
    <rect x="158" y="188" width="4" height="4"/>
    <rect x="166" y="188" width="4" height="4"/>
  </g>
  <!-- Right wing cornice -->
  <rect x="320" y="190" width="155" height="12" fill="#e8d470"/>
  <rect x="320" y="188" width="155" height="4" fill="#d4bc50"/>
  <!-- dentil details right -->
  <g fill="#c8aa40">
    <rect x="325" y="188" width="4" height="4"/>
    <rect x="333" y="188" width="4" height="4"/>
    <rect x="341" y="188" width="4" height="4"/>
    <rect x="349" y="188" width="4" height="4"/>
    <rect x="357" y="188" width="4" height="4"/>
    <rect x="365" y="188" width="4" height="4"/>
    <rect x="373" y="188" width="4" height="4"/>
    <rect x="381" y="188" width="4" height="4"/>
    <rect x="389" y="188" width="4" height="4"/>
    <rect x="397" y="188" width="4" height="4"/>
    <rect x="405" y="188" width="4" height="4"/>
    <rect x="413" y="188" width="4" height="4"/>
    <rect x="421" y="188" width="4" height="4"/>
    <rect x="429" y="188" width="4" height="4"/>
    <rect x="437" y="188" width="4" height="4"/>
    <rect x="445" y="188" width="4" height="4"/>
    <rect x="453" y="188" width="4" height="4"/>
    <rect x="461" y="188" width="4" height="4"/>
  </g>

  <!-- Horizontal dark brick band on wings -->
  <rect x="25" y="280" width="155" height="5" fill="#7a5c38" opacity="0.5"/>
  <rect x="320" y="280" width="155" height="5" fill="#7a5c38" opacity="0.5"/>

  <!-- =================== CENTER TOWER =================== -->
  <!-- Tower main body (upper) -->
  <rect x="155" y="80" width="190" height="290" fill="url(#wallGradCenter)" stroke="#c8b450" stroke-width="0.5"/>

  <!-- Tower roof - hipped/pyramid -->
  <polygon points="155,80 345,80 320,35 180,35" fill="url(#roofGrad)"/>
  <!-- Roof ridge cap -->
  <rect x="195" y="33" width="110" height="5" fill="#7a3820" rx="1"/>
  <!-- Roof tile lines -->
  <g stroke="#7a3820" stroke-width="0.8" opacity="0.5">
    <line x1="180" y1="35" x2="155" y2="80"/>
    <line x1="200" y1="35" x2="160" y2="80"/>
    <line x1="220" y1="35" x2="172" y2="80"/>
    <line x1="240" y1="35" x2="187" y2="80"/>
    <line x1="260" y1="35" x2="250" y2="80"/>
    <line x1="280" y1="35" x2="313" y2="80"/>
    <line x1="300" y1="35" x2="328" y2="80"/>
    <line x1="320" y1="35" x2="340" y2="80"/>
    <!-- Horizontal tile courses -->
    <line x1="167" y1="48" x2="333" y2="48"/>
    <line x1="159" y1="62" x2="341" y2="62"/>
  </g>

  <!-- Tower cornice at base of roof -->
  <rect x="148" y="78" width="204" height="10" fill="#e8d470"/>
  <rect x="148" y="75" width="204" height="5" fill="#d4bc50"/>
  <!-- Dentils on tower cornice -->
  <g fill="#c8aa40">
    <rect x="153" y="75" width="4" height="5"/>
    <rect x="161" y="75" width="4" height="5"/>
    <rect x="169" y="75" width="4" height="5"/>
    <rect x="177" y="75" width="4" height="5"/>
    <rect x="185" y="75" width="4" height="5"/>
    <rect x="193" y="75" width="4" height="5"/>
    <rect x="201" y="75" width="4" height="5"/>
    <rect x="209" y="75" width="4" height="5"/>
    <rect x="217" y="75" width="4" height="5"/>
    <rect x="225" y="75" width="4" height="5"/>
    <rect x="233" y="75" width="4" height="5"/>
    <rect x="241" y="75" width="4" height="5"/>
    <rect x="249" y="75" width="4" height="5"/>
    <rect x="257" y="75" width="4" height="5"/>
    <rect x="265" y="75" width="4" height="5"/>
    <rect x="273" y="75" width="4" height="5"/>
    <rect x="281" y="75" width="4" height="5"/>
    <rect x="289" y="75" width="4" height="5"/>
    <rect x="297" y="75" width="4" height="5"/>
    <rect x="305" y="75" width="4" height="5"/>
    <rect x="313" y="75" width="4" height="5"/>
    <rect x="321" y="75" width="4" height="5"/>
    <rect x="329" y="75" width="4" height="5"/>
    <rect x="337" y="75" width="4" height="5"/>
  </g>

  <!-- Horizontal dark dotted band on tower -->
  <rect x="155" y="195" width="190" height="5" fill="#7a5c38" opacity="0.5"/>

  <!-- =================== SIGN BANNER =================== -->
  <rect x="165" y="158" width="170" height="22" fill="#f0e090" stroke="#8a7030" stroke-width="1.5" rx="2"/>
  <!-- Sign border inner -->
  <rect x="167" y="160" width="166" height="18" fill="none" stroke="#b89838" stroke-width="0.5" rx="1"/>
  <!-- Museum text -->
  <text x="250" y="174" font-family="Georgia, serif" font-size="10.5" font-weight="bold" text-anchor="middle" fill="#5a3a08" letter-spacing="1">LANGELANDS MUSEUM</text>

  <!-- =================== WINDOWS - TOWER TOP =================== -->
  <!-- Two upper windows in tower -->
  <!-- Left upper window -->
  <rect x="178" y="96" width="55" height="52" fill="white" stroke="#c8b450" stroke-width="1.5"/>
  <rect x="180" y="98" width="51" height="48" fill="url(#glass)"/>
  <!-- Window cross -->
  <line x1="205" y1="98" x2="205" y2="146" stroke="white" stroke-width="2.5"/>
  <line x1="180" y1="122" x2="231" y2="122" stroke="white" stroke-width="2.5"/>
  <!-- Window sill -->
  <rect x="176" y="146" width="59" height="4" fill="#d4bc50"/>

  <!-- Right upper window -->
  <rect x="267" y="96" width="55" height="52" fill="white" stroke="#c8b450" stroke-width="1.5"/>
  <rect x="269" y="98" width="51" height="48" fill="url(#glass)"/>
  <line x1="294" y1="98" x2="294" y2="146" stroke="white" stroke-width="2.5"/>
  <line x1="269" y1="122" x2="320" y2="122" stroke="white" stroke-width="2.5"/>
  <rect x="265" y="146" width="59" height="4" fill="#d4bc50"/>

  <!-- =================== WINDOWS - TOWER MIDDLE =================== -->
  <!-- Large three-pane window left of sign area -->
  <!-- Left mid-large window -->
  <rect x="162" y="203" width="70" height="65" fill="white" stroke="#c8b450" stroke-width="1.5"/>
  <rect x="164" y="205" width="66" height="61" fill="url(#glass)"/>
  <line x1="186" y1="205" x2="186" y2="266" stroke="white" stroke-width="2.5"/>
  <line x1="208" y1="205" x2="208" y2="266" stroke="white" stroke-width="2.5"/>
  <line x1="164" y1="235" x2="230" y2="235" stroke="white" stroke-width="2.5"/>
  <rect x="160" y="266" width="74" height="5" fill="#d4bc50"/>

  <!-- Right mid-large window -->
  <rect x="268" y="203" width="70" height="65" fill="white" stroke="#c8b450" stroke-width="1.5"/>
  <rect x="270" y="205" width="66" height="61" fill="url(#glass)"/>
  <line x1="292" y1="205" x2="292" y2="266" stroke="white" stroke-width="2.5"/>
  <line x1="314" y1="205" x2="314" y2="266" stroke="white" stroke-width="2.5"/>
  <line x1="270" y1="235" x2="336" y2="235" stroke="white" stroke-width="2.5"/>
  <rect x="266" y="266" width="74" height="5" fill="#d4bc50"/>

  <!-- =================== ARCHED ENTRANCE AREA =================== -->
  <!-- Arch surround -->
  <rect x="195" y="270" width="110" height="100" fill="#e8d060" stroke="#c8b450" stroke-width="0.5"/>
  <!-- Dark brick arch decorations -->
  <g fill="#8a5c38" opacity="0.7">
    <!-- Left side bricks -->
    <rect x="195" y="270" width="8" height="6"/>
    <rect x="195" y="280" width="8" height="6"/>
    <rect x="195" y="290" width="8" height="6"/>
    <rect x="195" y="300" width="8" height="6"/>
    <rect x="195" y="310" width="8" height="6"/>
    <!-- Right side bricks -->
    <rect x="297" y="270" width="8" height="6"/>
    <rect x="297" y="280" width="8" height="6"/>
    <rect x="297" y="290" width="8" height="6"/>
    <rect x="297" y="300" width="8" height="6"/>
    <rect x="297" y="310" width="8" height="6"/>
  </g>
  <!-- Arch opening -->
  <path d="M 210 370 L 210 305 Q 210 275 250 275 Q 290 275 290 305 L 290 370 Z" fill="#d8c858"/>
  <!-- Inner arch -->
  <path d="M 215 370 L 215 308 Q 215 282 250 282 Q 285 282 285 308 L 285 370 Z" fill="#c8b848"/>
  <!-- Arch keystones / detail -->
  <path d="M 240 276 Q 250 270 260 276" fill="none" stroke="#8a5c38" stroke-width="1.5"/>

  <!-- =================== DOOR =================== -->
  <rect x="222" y="320" width="56" height="50" fill="url(#doorGrad)" stroke="#8a8a78" stroke-width="1.5" rx="1"/>
  <!-- Door panels -->
  <rect x="225" y="323" width="23" height="18" fill="none" stroke="#9a9a88" stroke-width="1" rx="1"/>
  <rect x="252" y="323" width="23" height="18" fill="none" stroke="#9a9a88" stroke-width="1" rx="1"/>
  <rect x="225" y="345" width="23" height="22" fill="none" stroke="#9a9a88" stroke-width="1" rx="1"/>
  <rect x="252" y="345" width="23" height="22" fill="none" stroke="#9a9a88" stroke-width="1" rx="1"/>
  <!-- Door handle -->
  <circle cx="247" cy="347" r="2" fill="#8a7840"/>
  <circle cx="253" cy="347" r="2" fill="#8a7840"/>

  <!-- Steps -->
  <rect x="210" y="368" width="80" height="5" fill="#b0a060" stroke="#a09050" stroke-width="0.5"/>
  <rect x="215" y="363" width="70" height="6" fill="#b8a868" stroke="#a09050" stroke-width="0.5"/>

  <!-- =================== WING WINDOWS - LOWER ROW =================== -->
  <!-- Left wing - 2 windows lower -->
  <!-- Window LW1 -->
  <rect x="38" y="298" width="52" height="50" fill="white" stroke="#c8b450" stroke-width="1.5"/>
  <rect x="40" y="300" width="48" height="46" fill="url(#glass)"/>
  <line x1="64" y1="300" x2="64" y2="346" stroke="white" stroke-width="2.5"/>
  <line x1="40" y1="323" x2="88" y2="323" stroke="white" stroke-width="2.5"/>
  <rect x="36" y="346" width="56" height="4" fill="#d4bc50"/>
  <!-- Windowbox flower box hint -->
  <rect x="38" y="348" width="52" height="6" fill="#8a6c38" opacity="0.4"/>

  <!-- Window LW2 -->
  <rect x="106" y="298" width="52" height="50" fill="white" stroke="#c8b450" stroke-width="1.5"/>
  <rect x="108" y="300" width="48" height="46" fill="url(#glass)"/>
  <line x1="132" y1="300" x2="132" y2="346" stroke="white" stroke-width="2.5"/>
  <line x1="108" y1="323" x2="156" y2="323" stroke="white" stroke-width="2.5"/>
  <rect x="104" y="346" width="56" height="4" fill="#d4bc50"/>
  <rect x="106" y="348" width="52" height="6" fill="#8a6c38" opacity="0.4"/>

  <!-- Right wing - 2 windows lower -->
  <!-- Window RW1 -->
  <rect x="342" y="298" width="52" height="50" fill="white" stroke="#c8b450" stroke-width="1.5"/>
  <rect x="344" y="300" width="48" height="46" fill="url(#glass)"/>
  <line x1="368" y1="300" x2="368" y2="346" stroke="white" stroke-width="2.5"/>
  <line x1="344" y1="323" x2="392" y2="323" stroke="white" stroke-width="2.5"/>
  <rect x="340" y="346" width="56" height="4" fill="#d4bc50"/>
  <rect x="342" y="348" width="52" height="6" fill="#8a6c38" opacity="0.4"/>

  <!-- Window RW2 -->
  <rect x="410" y="298" width="52" height="50" fill="white" stroke="#c8b450" stroke-width="1.5"/>
  <rect x="412" y="300" width="48" height="46" fill="url(#glass)"/>
  <line x1="436" y1="300" x2="436" y2="346" stroke="white" stroke-width="2.5"/>
  <line x1="412" y1="323" x2="460" y2="323" stroke="white" stroke-width="2.5"/>
  <rect x="408" y="346" width="56" height="4" fill="#d4bc50"/>
  <rect x="410" y="348" width="52" height="6" fill="#8a6c38" opacity="0.4"/>

  <!-- =================== WING WINDOWS - UPPER ROW (on wings, between cornice and band) =================== -->
  <!-- Left wing upper windows - large multi-pane -->
  <!-- LWU1 -->
  <rect x="30" y="207" width="65" height="62" fill="white" stroke="#c8b450" stroke-width="1.5"/>
  <rect x="32" y="209" width="61" height="58" fill="url(#glass)"/>
  <line x1="52" y1="209" x2="52" y2="267" stroke="white" stroke-width="2.5"/>
  <line x1="72" y1="209" x2="72" y2="267" stroke="white" stroke-width="2.5"/>
  <line x1="32" y1="238" x2="93" y2="238" stroke="white" stroke-width="2.5"/>
  <rect x="28" y="267" width="69" height="5" fill="#d4bc50"/>

  <!-- LWU2 -->
  <rect x="112" y="207" width="62" height="62" fill="white" stroke="#c8b450" stroke-width="1.5"/>
  <rect x="114" y="209" width="58" height="58" fill="url(#glass)"/>
  <line x1="133" y1="209" x2="133" y2="267" stroke="white" stroke-width="2.5"/>
  <line x1="152" y1="209" x2="152" y2="267" stroke="white" stroke-width="2.5"/>
  <line x1="114" y1="238" x2="172" y2="238" stroke="white" stroke-width="2.5"/>
  <rect x="110" y="267" width="66" height="5" fill="#d4bc50"/>

  <!-- Right wing upper windows -->
  <!-- RWU1 -->
  <rect x="326" y="207" width="62" height="62" fill="white" stroke="#c8b450" stroke-width="1.5"/>
  <rect x="328" y="209" width="58" height="58" fill="url(#glass)"/>
  <line x1="347" y1="209" x2="347" y2="267" stroke="white" stroke-width="2.5"/>
  <line x1="366" y1="209" x2="366" y2="267" stroke="white" stroke-width="2.5"/>
  <line x1="328" y1="238" x2="386" y2="238" stroke="white" stroke-width="2.5"/>
  <rect x="324" y="267" width="66" height="5" fill="#d4bc50"/>

  <!-- RWU2 -->
  <rect x="405" y="207" width="65" height="62" fill="white" stroke="#c8b450" stroke-width="1.5"/>
  <rect x="407" y="209" width="61" height="58" fill="url(#glass)"/>
  <line x1="427" y1="209" x2="427" y2="267" stroke="white" stroke-width="2.5"/>
  <line x1="447" y1="209" x2="447" y2="267" stroke="white" stroke-width="2.5"/>
  <line x1="407" y1="238" x2="468" y2="238" stroke="white" stroke-width="2.5"/>
  <rect x="403" y="267" width="69" height="5" fill="#d4bc50"/>

  <!-- =================== BASEMENT WINDOWS =================== -->
  <!-- Small basement windows on wings, low down -->
  <!-- Left -->
  <rect x="50" y="352" width="38" height="18" fill="white" stroke="#c8b450" stroke-width="1"/>
  <rect x="52" y="354" width="34" height="14" fill="url(#glass)"/>
  <line x1="69" y1="354" x2="69" y2="368" stroke="white" stroke-width="2"/>

  <rect x="115" y="352" width="38" height="18" fill="white" stroke="#c8b450" stroke-width="1"/>
  <rect x="117" y="354" width="34" height="14" fill="url(#glass)"/>
  <line x1="134" y1="354" x2="134" y2="368" stroke="white" stroke-width="2"/>

  <!-- Right -->
  <rect x="347" y="352" width="38" height="18" fill="white" stroke="#c8b450" stroke-width="1"/>
  <rect x="349" y="354" width="34" height="14" fill="url(#glass)"/>
  <line x1="366" y1="354" x2="366" y2="368" stroke="white" stroke-width="2"/>

  <rect x="412" y="352" width="38" height="18" fill="white" stroke="#c8b450" stroke-width="1"/>
  <rect x="414" y="354" width="34" height="14" fill="url(#glass)"/>
  <line x1="431" y1="354" x2="431" y2="368" stroke="white" stroke-width="2"/>

  <!-- =================== CHIMNEY =================== -->
  <rect x="244" y="20" width="16" height="22" fill="#b85c38"/>
  <rect x="241" y="18" width="22" height="5" fill="#9a4a28"/>

  <!-- =================== BASE / PLINTH =================== -->
  <rect x="25" y="365" width="450" height="8" fill="#c8b060"/>

  </g>
</svg>
