<?xml version="1.0" encoding="iso-8859-1"?>
<!-- Uploaded to: SVG Repo, www.svgrepo.com, Generator: SVG Repo Mixer Tools -->
<!DOCTYPE svg PUBLIC "-//W3C//DTD SVG 1.1//EN" "http://www.w3.org/Graphics/SVG/1.1/DTD/svg11.dtd">
<svg fill="#000000" height="800px" width="800px" version="1.1" id="Capa_1" xmlns="http://www.w3.org/2000/svg" xmlns:xlink="http://www.w3.org/1999/xlink" 
	 viewBox="0 0 183.623 183.623" xml:space="preserve">
<path d="M91.833,183.602c-23.517,0-47.033-8.952-64.936-26.854C9.553,139.402,0,116.341,0,91.811c0-23.73,8.94-46.086,25.227-63.222
	c0.132-0.182,0.29-0.348,0.471-0.491c0.396-0.411,0.796-0.818,1.201-1.223c35.806-35.806,94.066-35.806,129.872,0
	c29.768,29.767,34.786,75.057,15.059,110.059c-0.004,0.01-0.008,0.017-0.01,0.023c-0.068,0.149-0.148,0.289-0.24,0.418
	c-3.959,6.934-8.896,13.46-14.808,19.371c-0.406,0.407-0.813,0.806-1.226,1.204c-0.142,0.179-0.306,0.335-0.487,0.466
	C137.382,175.205,114.606,183.602,91.833,183.602z M14.131,52.952C8.159,64.865,5,78.096,5,91.811c0,23.194,9.032,45,25.433,61.401
	c27.085,27.083,67.761,32.5,100.281,16.25c1.061-2.595,4.466-12.129,3.604-25.767c-0.936-14.806-7.244-37.648-31.982-62.386
	c-24.738-24.738-47.58-31.046-62.386-31.982C26.22,48.459,16.649,51.916,14.131,52.952z M35.513,44.186
	c1.426,0,2.901,0.041,4.429,0.131c15.742,0.928,39.958,7.485,65.93,33.457c25.972,25.972,32.529,50.188,33.457,65.93
	c0.563,9.564-0.792,17.195-2.147,22.171c5.059-3.097,9.863-6.757,14.329-10.985c0.876-2.176,4.423-12.063,3.146-26.604
	c-1.337-15.229-8.395-38.845-34.423-64.874C73.147,16.327,33.395,30.27,28.756,32.134c-4.203,4.436-7.886,9.24-11.019,14.339
	C21.92,45.331,27.99,44.186,35.513,44.186z M49.06,23.71c2.021,0,4.153,0.082,6.393,0.269c16.134,1.345,41.083,8.665,68.316,35.898
	c27.233,27.233,34.553,52.182,35.898,68.315c0.634,7.609,0.057,14-0.824,18.851c3.227-3.909,6.059-8.036,8.496-12.328
	c0.589-1.443,4.281-11.201,2.899-25.853c-1.381-14.643-8.261-37.33-33.193-62.262C112.113,21.67,89.4,14.814,74.736,13.453
	c-15.852-1.47-25.986,2.976-26.086,3.021c-0.018,0.008-0.035,0.016-0.053,0.023c-4.172,2.394-8.188,5.163-11.994,8.305
	C40.025,24.18,44.216,23.71,49.06,23.71z M68.635,8.151c1.966,0.01,4.042,0.1,6.222,0.292c15.562,1.374,39.597,8.496,65.723,34.622
	c26.125,26.125,33.272,50.132,34.667,65.671c0.191,2.128,0.284,4.159,0.3,6.082c7.949-29.112,0.511-61.584-22.313-84.408
	C130.36,7.539,97.797,0.118,68.635,8.151z"/>
</svg>